<?xml version="1.0" encoding="UTF-8" standalone="no"?>
<!DOCTYPE svg PUBLIC "-//W3C//DTD SVG 1.1//EN" "http://www.w3.org/Graphics/SVG/1.1/DTD/svg11.dtd">
<svg width="100%" height="100%" viewBox="0 0 64 64" version="1.1" xmlns="http://www.w3.org/2000/svg" xmlns:xlink="http://www.w3.org/1999/xlink" xml:space="preserve" xmlns:serif="http://www.serif.com/" style="fill-rule:evenodd;clip-rule:evenodd;stroke-linejoin:round;stroke-miterlimit:1.41421;">
    <g transform="matrix(1,0,0,1,-1066,-2151)">
        <g transform="matrix(0.644329,0,0,0.644329,805.88,-222.187)">
            <circle cx="453.363" cy="3732.85" r="49.664" style="fill:rgb(248,151,0);"/>
        </g>
        <g transform="matrix(0.491454,0,0,0.491454,390.848,1562.53)">
            <g id="manager">
                <g>
                    <g transform="matrix(0.139073,0,0,0.139073,1144.22,1212.39)">
                        <path d="M2107.47,141.006L2108.45,141.025L2109.42,141.055L2110.38,141.098L2111.35,141.153L2112.3,141.22L2113.26,141.299L2114.22,141.39L2115.16,141.493L2116.11,141.607L2117.05,141.733L2117.99,141.871L2118.93,142.02L2119.86,142.18L2120.78,142.352L2121.71,142.535L2122.63,142.729L2123.54,142.935L2124.45,143.151L2125.36,143.379L2126.26,143.617L2127.16,143.866L2128.05,144.126L2128.94,144.397L2129.82,144.678L2130.7,144.97L2131.58,145.272L2132.45,145.584L2133.31,145.907L2134.17,146.24L2135.03,146.584L2135.88,146.937L2136.72,147.3L2137.56,147.674L2138.39,148.057L2139.22,148.45L2140.04,148.853L2140.86,149.265L2141.67,149.687L2142.47,150.118L2143.28,150.559L2144.07,151.009L2144.86,151.468L2145.64,151.937L2147.18,152.901L2148.7,153.902L2150.19,154.937L2151.66,156.007L2153.1,157.112L2154.51,158.25L2155.9,159.42L2157.25,160.623L2158.58,161.858L2159.88,163.124L2161.14,164.42L2162.38,165.747L2163.58,167.102L2164.75,168.487L2165.89,169.899L2166.99,171.339L2168.06,172.806L2169.1,174.299L2170.1,175.819L2171.06,177.363L2171.53,178.144L2171.99,178.932L2172.44,179.725L2172.88,180.525L2173.31,181.33L2173.74,182.141L2174.15,182.957L2174.55,183.78L2174.94,184.608L2175.33,185.441L2175.7,186.28L2176.06,187.124L2176.42,187.973L2176.76,188.828L2177.09,189.687L2177.42,190.552L2177.73,191.421L2178.03,192.296L2178.32,193.175L2178.6,194.059L2178.87,194.948L2179.13,195.841L2179.38,196.739L2179.62,197.641L2179.85,198.547L2180.07,199.458L2180.27,200.373L2180.47,201.292L2180.65,202.215L2180.82,203.143L2180.98,204.074L2181.13,205.009L2181.27,205.947L2181.39,206.89L2181.51,207.836L2181.61,208.785L2181.7,209.738L2181.78,210.695L2181.85,211.654L2181.9,212.617L2181.95,213.583L2181.97,214.553L2181.99,215.525L2182,216.5L2181.99,217.475L2181.97,218.447L2181.95,219.417L2181.9,220.383L2181.85,221.346L2181.78,222.305L2181.7,223.262L2181.61,224.215L2181.51,225.164L2181.39,226.11L2181.27,227.053L2181.13,227.991L2180.98,228.926L2180.82,229.857L2180.65,230.785L2180.47,231.708L2180.27,232.627L2180.07,233.542L2179.85,234.453L2179.62,235.359L2179.38,236.261L2179.13,237.159L2178.87,238.052L2178.6,238.941L2178.32,239.825L2178.03,240.704L2177.73,241.579L2177.42,242.448L2177.09,243.313L2176.76,244.172L2176.42,245.027L2176.06,245.876L2175.7,246.72L2175.33,247.559L2174.94,248.392L2174.55,249.22L2174.15,250.043L2173.74,250.859L2173.31,251.67L2172.88,252.475L2172.44,253.275L2171.99,254.068L2171.53,254.856L2171.06,255.637L2170.1,257.181L2169.1,258.701L2168.06,260.194L2166.99,261.661L2165.89,263.101L2164.75,264.513L2163.58,265.898L2162.38,267.253L2161.14,268.58L2159.88,269.876L2158.58,271.142L2157.25,272.377L2155.9,273.58L2154.51,274.75L2153.1,275.888L2151.66,276.993L2150.19,278.063L2148.7,279.098L2147.18,280.099L2145.64,281.063L2144.86,281.532L2144.07,281.991L2143.28,282.441L2142.47,282.882L2141.67,283.313L2140.86,283.735L2140.04,284.147L2139.22,284.55L2138.39,284.943L2137.56,285.326L2136.72,285.7L2135.88,286.063L2135.03,286.416L2134.17,286.76L2133.31,287.093L2132.45,287.416L2131.58,287.728L2130.7,288.03L2129.82,288.322L2128.94,288.603L2128.05,288.874L2127.16,289.134L2126.26,289.383L2125.36,289.621L2124.45,289.849L2123.54,290.065L2122.63,290.271L2121.71,290.465L2120.78,290.648L2119.86,290.82L2118.93,290.98L2117.99,291.129L2117.05,291.267L2116.11,291.393L2115.16,291.507L2114.22,291.61L2113.26,291.701L2112.3,291.78L2111.35,291.847L2110.38,291.902L2109.42,291.945L2108.45,291.975L2107.47,291.994L2106.5,292L2105.53,291.994L2104.55,291.975L2103.58,291.945L2102.62,291.902L2101.65,291.847L2100.7,291.78L2099.74,291.701L2098.78,291.61L2097.84,291.507L2096.89,291.393L2095.95,291.267L2095.01,291.129L2094.07,290.98L2093.14,290.82L2092.22,290.648L2091.29,290.465L2090.37,290.271L2089.46,290.065L2088.55,289.849L2087.64,289.621L2086.74,289.383L2085.84,289.134L2084.95,288.874L2084.06,288.603L2083.18,288.322L2082.3,288.03L2081.42,287.728L2080.55,287.416L2079.69,287.093L2078.83,286.76L2077.97,286.416L2077.12,286.063L2076.28,285.7L2075.44,285.326L2074.61,284.943L2073.78,284.55L2072.96,284.147L2072.14,283.735L2071.33,283.313L2070.53,282.882L2069.72,282.441L2068.93,281.991L2068.14,281.532L2067.36,281.063L2065.82,280.099L2064.3,279.098L2062.81,278.063L2061.34,276.993L2059.9,275.888L2058.49,274.75L2057.1,273.58L2055.75,272.377L2054.42,271.142L2053.12,269.876L2051.86,268.58L2050.62,267.253L2049.42,265.898L2048.25,264.513L2047.11,263.101L2046.01,261.661L2044.94,260.194L2043.9,258.701L2042.9,257.181L2041.94,255.637L2041.47,254.856L2041.01,254.068L2040.56,253.275L2040.12,252.475L2039.69,251.67L2039.27,250.859L2038.85,250.043L2038.45,249.22L2038.06,248.392L2037.67,247.559L2037.3,246.72L2036.94,245.876L2036.58,245.027L2036.24,244.172L2035.91,243.313L2035.58,242.448L2035.27,241.579L2034.97,240.704L2034.68,239.825L2034.4,238.941L2034.13,238.052L2033.87,237.159L2033.62,236.261L2033.38,235.359L2033.15,234.453L2032.93,233.542L2032.73,232.627L2032.54,231.708L2032.35,230.785L2032.18,229.857L2032.02,228.926L2031.87,227.991L2031.73,227.053L2031.61,226.11L2031.49,225.164L2031.39,224.215L2031.3,223.262L2031.22,222.305L2031.15,221.346L2031.1,220.383L2031.06,219.417L2031.03,218.447L2031.01,217.475L2031,216.5L2031.01,215.525L2031.03,214.553L2031.06,213.583L2031.1,212.617L2031.15,211.654L2031.22,210.695L2031.3,209.738L2031.39,208.785L2031.49,207.836L2031.61,206.89L2031.73,205.947L2031.87,205.009L2032.02,204.074L2032.18,203.143L2032.35,202.215L2032.54,201.292L2032.73,200.373L2032.93,199.458L2033.15,198.547L2033.38,197.641L2033.62,196.739L2033.87,195.841L2034.13,194.948L2034.4,194.059L2034.68,193.175L2034.97,192.296L2035.27,191.421L2035.58,190.552L2035.91,189.687L2036.24,188.828L2036.58,187.973L2036.94,187.124L2037.3,186.28L2037.67,185.441L2038.06,184.608L2038.45,183.78L2038.85,182.957L2039.27,182.141L2039.69,181.33L2040.12,180.525L2040.56,179.725L2041.01,178.932L2041.47,178.144L2041.94,177.363L2042.9,175.819L2043.9,174.299L2044.94,172.806L2046.01,171.339L2047.11,169.899L2048.25,168.487L2049.42,167.102L2050.62,165.747L2051.86,164.42L2053.12,163.124L2054.42,161.858L2055.75,160.623L2057.1,159.42L2058.49,158.25L2059.9,157.112L2061.34,156.007L2062.81,154.937L2064.3,153.902L2065.82,152.901L2067.36,151.937L2068.14,151.468L2068.93,151.009L2069.72,150.559L2070.53,150.118L2071.33,149.687L2072.14,149.265L2072.96,148.853L2073.78,148.45L2074.61,148.057L2075.44,147.674L2076.28,147.3L2077.12,146.937L2077.97,146.584L2078.83,146.24L2079.69,145.907L2080.55,145.584L2081.42,145.272L2082.3,144.97L2083.18,144.678L2084.06,144.397L2084.95,144.126L2085.84,143.866L2086.74,143.617L2087.64,143.379L2088.55,143.151L2089.46,142.935L2090.37,142.729L2091.29,142.535L2092.22,142.352L2093.14,142.18L2094.07,142.02L2095.01,141.871L2095.95,141.733L2096.89,141.607L2097.84,141.493L2098.78,141.39L2099.74,141.299L2100.7,141.22L2101.65,141.153L2102.62,141.098L2103.58,141.055L2104.55,141.025L2105.53,141.006L2106.5,141L2107.47,141.006ZM2105.92,170.267L2105.29,170.279L2104.67,170.299L2104.1,170.323L2103.55,170.355L2102.88,170.403L2102.33,170.446L2101.79,170.5L2101.14,170.57L2100.55,170.64L2100.02,170.71L2099.44,170.797L2098.87,170.887L2098.29,170.987L2097.72,171.091L2097.17,171.202L2096.62,171.318L2096.06,171.443L2095.46,171.586L2094.92,171.721L2094.38,171.863L2093.85,172.01L2093.32,172.163L2092.75,172.339L2092.23,172.503L2091.72,172.674L2091.16,172.868L2090.6,173.069L2090.06,173.271L2089.56,173.462L2089.07,173.66L2088.54,173.882L2088,174.112L2087.53,174.322L2087.01,174.56L2086.45,174.826L2086,175.049L2085.48,175.312L2084.99,175.563L2084.5,175.83L2084.01,176.098L2083.53,176.369L2083.01,176.674L2082.64,176.895L2081.63,177.527L2080.68,178.153L2079.77,178.784L2078.87,179.442L2077.99,180.117L2077.12,180.814L2076.25,181.554L2075.42,182.283L2074.63,183.024L2073.82,183.817L2073.04,184.612L2072.29,185.419L2071.53,186.281L2070.82,187.112L2070.12,187.98L2069.43,188.879L2068.79,189.766L2068.15,190.679L2067.54,191.613L2066.9,192.636L2066.64,193.067L2066.36,193.547L2066.1,194.007L2065.84,194.473L2065.56,194.995L2065.3,195.492L2065.06,195.973L2064.8,196.505L2064.57,196.991L2064.33,197.508L2064.1,198.025L2063.89,198.523L2063.68,199.031L2063.45,199.588L2063.25,200.118L2063.07,200.589L2062.88,201.131L2062.68,201.7L2062.51,202.213L2062.34,202.741L2062.17,203.297L2062.01,203.858L2061.86,204.392L2061.72,204.945L2061.58,205.477L2061.45,206.028L2061.32,206.609L2061.2,207.168L2061.09,207.728L2060.99,208.295L2060.89,208.864L2060.8,209.432L2060.71,210.021L2060.64,210.576L2060.57,211.166L2060.5,211.759L2060.45,212.33L2060.4,212.906L2060.36,213.488L2060.32,214.106L2060.3,214.699L2060.28,215.292L2060.27,215.894L2060.26,216.499L2060.27,217.105L2060.28,217.709L2060.3,218.306L2060.32,218.897L2060.36,219.51L2060.4,220.089L2060.45,220.668L2060.5,221.24L2060.57,221.833L2060.64,222.431L2060.71,222.981L2060.8,223.559L2060.89,224.144L2060.99,224.706L2061.09,225.271L2061.2,225.834L2061.32,226.391L2061.45,226.974L2061.58,227.509L2061.72,228.053L2061.87,228.622L2062.01,229.144L2062.17,229.703L2062.34,230.26L2062.5,230.768L2062.69,231.317L2062.88,231.871L2063.06,232.391L2063.25,232.901L2063.45,233.414L2063.67,233.947L2063.9,234.498L2064.11,234.999L2064.32,235.471L2064.57,236.008L2064.81,236.521L2065.05,237.005L2065.3,237.508L2065.56,238.007L2065.83,238.501L2066.1,238.992L2066.38,239.478L2066.66,239.962L2066.9,240.367L2067.53,241.376L2068.15,242.32L2068.79,243.235L2069.43,244.121L2070.12,245.021L2070.82,245.887L2071.54,246.736L2072.28,247.568L2073.04,248.388L2073.82,249.185L2074.61,249.96L2075.44,250.732L2076.26,251.463L2077.1,252.173L2077.99,252.883L2078.87,253.56L2079.77,254.215L2080.7,254.864L2081.61,255.461L2082.62,256.09L2083.05,256.351L2083.53,256.633L2084.01,256.901L2084.5,257.172L2084.99,257.437L2085.48,257.69L2086,257.95L2086.5,258.2L2086.97,258.419L2087.48,258.655L2088,258.887L2088.54,259.117L2089.07,259.338L2089.56,259.537L2090.11,259.748L2090.65,259.952L2091.16,260.134L2091.67,260.31L2092.18,260.479L2092.75,260.659L2093.32,260.835L2093.85,260.988L2094.38,261.135L2094.92,261.278L2095.51,261.426L2096.06,261.558L2096.61,261.682L2097.17,261.799L2097.72,261.909L2098.29,262.015L2098.87,262.113L2099.44,262.205L2099.96,262.281L2100.61,262.366L2101.19,262.439L2101.73,262.497L2102.33,262.554L2102.94,262.604L2103.49,262.643L2104.05,262.674L2104.72,262.703L2105.35,262.725L2105.87,262.735L2106.5,262.737L2107.13,262.735L2107.65,262.725L2108.28,262.703L2108.95,262.674L2109.51,262.643L2110.06,262.604L2110.67,262.554L2111.27,262.497L2111.81,262.439L2112.39,262.366L2113.04,262.281L2113.56,262.205L2114.13,262.113L2114.71,262.015L2115.28,261.909L2115.83,261.799L2116.39,261.682L2116.94,261.558L2117.49,261.426L2118.08,261.278L2118.62,261.135L2119.15,260.988L2119.68,260.835L2120.25,260.659L2120.82,260.479L2121.33,260.31L2121.84,260.134L2122.35,259.952L2122.89,259.748L2123.44,259.537L2123.93,259.338L2124.46,259.117L2125,258.887L2125.52,258.655L2126.03,258.419L2126.5,258.2L2127,257.95L2127.52,257.69L2128.01,257.437L2128.5,257.172L2128.99,256.901L2129.47,256.633L2129.95,256.351L2130.38,256.09L2131.39,255.461L2132.3,254.864L2133.23,254.215L2134.13,253.56L2135.01,252.883L2135.9,252.173L2136.74,251.463L2137.56,250.732L2138.39,249.96L2139.18,249.185L2139.96,248.388L2140.72,247.568L2141.46,246.736L2142.18,245.887L2142.88,245.021L2143.57,244.121L2144.21,243.235L2144.85,242.32L2145.47,241.376L2146.1,240.367L2146.34,239.962L2146.62,239.478L2146.9,238.992L2147.17,238.501L2147.44,238.007L2147.7,237.508L2147.95,237.005L2148.19,236.521L2148.43,236.008L2148.68,235.471L2148.89,234.999L2149.1,234.498L2149.33,233.947L2149.55,233.414L2149.75,232.901L2149.94,232.391L2150.12,231.871L2150.31,231.317L2150.5,230.768L2150.66,230.26L2150.83,229.703L2150.99,229.144L2151.14,228.622L2151.28,228.053L2151.42,227.509L2151.55,226.974L2151.68,226.391L2151.8,225.834L2151.91,225.271L2152.01,224.706L2152.11,224.144L2152.2,223.559L2152.29,222.981L2152.36,222.431L2152.43,221.833L2152.5,221.24L2152.55,220.668L2152.6,220.089L2152.64,219.51L2152.68,218.897L2152.7,218.306L2152.72,217.709L2152.73,217.076L2152.74,216.499L2152.73,215.922L2152.72,215.292L2152.7,214.699L2152.68,214.106L2152.64,213.488L2152.6,212.906L2152.55,212.33L2152.5,211.759L2152.43,211.166L2152.36,210.576L2152.29,210.021L2152.2,209.432L2152.11,208.864L2152.01,208.295L2151.91,207.728L2151.8,207.168L2151.68,206.609L2151.55,206.028L2151.42,205.477L2151.28,204.945L2151.14,204.392L2150.99,203.858L2150.83,203.297L2150.66,202.741L2150.49,202.213L2150.32,201.7L2150.12,201.131L2149.93,200.589L2149.75,200.118L2149.55,199.588L2149.32,199.031L2149.11,198.523L2148.9,198.025L2148.67,197.508L2148.43,196.991L2148.2,196.505L2147.94,195.973L2147.7,195.492L2147.44,194.995L2147.16,194.473L2146.9,194.007L2146.64,193.547L2146.36,193.067L2146.1,192.636L2145.46,191.613L2144.85,190.679L2144.21,189.766L2143.57,188.879L2142.88,187.98L2142.18,187.112L2141.47,186.281L2140.71,185.419L2139.96,184.612L2139.18,183.817L2138.37,183.024L2137.58,182.283L2136.75,181.554L2135.88,180.814L2135.01,180.117L2134.13,179.442L2133.23,178.784L2132.32,178.153L2131.37,177.527L2130.36,176.895L2129.99,176.674L2129.47,176.369L2128.99,176.098L2128.5,175.83L2128.01,175.563L2127.52,175.312L2127,175.049L2126.55,174.826L2125.99,174.56L2125.47,174.322L2125,174.112L2124.46,173.882L2123.93,173.66L2123.44,173.462L2122.94,173.271L2122.4,173.069L2121.84,172.868L2121.28,172.674L2120.77,172.503L2120.25,172.339L2119.68,172.163L2119.15,172.01L2118.62,171.863L2118.08,171.721L2117.54,171.586L2116.94,171.443L2116.39,171.318L2115.83,171.202L2115.28,171.091L2114.71,170.987L2114.13,170.887L2113.56,170.797L2112.98,170.71L2112.45,170.64L2111.86,170.57L2111.21,170.5L2110.67,170.446L2110.12,170.403L2109.45,170.355L2108.9,170.323L2108.33,170.299L2107.71,170.279L2107.08,170.267L2106.5,170.262L2105.92,170.267Z" style="fill:white;"/>
                    </g>
                    <g transform="matrix(4.50343,0,0,1.07492,-4775.81,757.693)">
                        <path d="M1381.21,465.272L1381.25,465.283L1381.3,465.296L1381.34,465.313L1381.39,465.333L1381.43,465.357L1381.48,465.383L1381.53,465.413L1381.57,465.446L1381.62,465.482L1381.66,465.521L1381.71,465.564L1381.75,465.609L1381.8,465.658L1381.84,465.71L1381.89,465.765L1381.93,465.823L1381.98,465.884L1382.02,465.948L1382.06,466.015L1382.11,466.085L1382.15,466.158L1382.2,466.234L1382.24,466.314L1382.28,466.396L1382.33,466.481L1382.37,466.569L1382.41,466.659L1382.46,466.753L1382.5,466.85L1382.54,466.949L1382.58,467.052L1382.63,467.157L1382.67,467.265L1382.71,467.376L1382.75,467.49L1382.79,467.607L1382.83,467.726L1382.88,467.848L1382.92,467.973L1382.96,468.101L1383,468.231L1383.04,468.364L1383.08,468.5L1383.12,468.638L1383.16,468.779L1383.19,468.923L1383.23,469.07L1383.27,469.219L1383.31,469.37L1383.35,469.525L1383.39,469.681L1383.42,469.841L1383.46,470.003L1383.5,470.168L1383.54,470.335L1383.57,470.504L1383.61,470.676L1383.64,470.851L1383.68,471.028L1383.71,471.208L1383.75,471.39L1383.78,471.574L1383.82,471.761L1383.85,471.95L1383.88,472.142L1383.92,472.336L1383.95,472.533L1383.98,472.732L1384.01,472.933L1384.05,473.136L1384.08,473.342L1384.11,473.55L1384.14,473.76L1384.17,473.973L1384.2,474.188L1384.23,474.405L1384.26,474.625L1384.29,474.846L1384.31,475.07L1384.34,475.296L1384.37,475.524L1384.4,475.755L1384.42,475.987L1384.45,476.222L1384.48,476.459L1384.5,476.697L1384.53,476.938L1384.55,477.181L1384.57,477.427L1384.6,477.674L1384.62,477.923L1384.64,478.174L1384.66,478.427L1384.69,478.683L1384.71,478.94L1384.73,479.199L1384.75,479.46L1384.77,479.723L1384.79,479.988L1384.81,480.255L1384.82,480.524L1384.84,480.795L1384.86,481.067L1384.88,481.342L1384.89,481.618L1384.91,481.896L1384.92,482.176L1384.94,482.458L1384.95,482.741L1384.96,483.027L1384.98,483.314L1384.99,483.603L1385,483.893L1385.01,484.185L1385.02,484.479L1385.03,484.775L1385.04,485.072L1385.05,485.371L1385.06,485.672L1385.07,485.974L1385.07,486.278L1385.08,486.584L1385.09,486.891L1385.09,487.2L1385.1,487.51L1385.1,487.822L1385.1,488.135L1385.1,495.5L1374.12,495.5L1374.12,488.135L1374.12,487.822L1374.13,487.51L1374.13,487.199L1374.14,486.89L1374.15,486.583L1374.15,486.277L1374.16,485.972L1374.17,485.669L1374.18,485.368L1374.19,485.068L1374.2,484.77L1374.21,484.474L1374.22,484.179L1374.23,483.886L1374.25,483.594L1374.26,483.304L1374.27,483.016L1374.29,482.729L1374.3,482.445L1374.32,482.162L1374.33,481.88L1374.35,481.601L1374.37,481.323L1374.38,481.047L1374.4,480.773L1374.42,480.501L1374.44,480.231L1374.46,479.962L1374.48,479.696L1374.5,479.431L1374.52,479.168L1374.54,478.907L1374.56,478.648L1374.59,478.391L1374.61,478.136L1374.63,477.883L1374.66,477.632L1374.68,477.383L1374.7,477.136L1374.73,476.892L1374.76,476.649L1374.78,476.408L1374.81,476.169L1374.84,475.933L1374.86,475.699L1374.89,475.467L1374.92,475.237L1374.95,475.009L1374.98,474.783L1375.01,474.56L1375.04,474.339L1375.07,474.12L1375.1,473.903L1375.13,473.689L1375.16,473.477L1375.19,473.267L1375.22,473.059L1375.25,472.854L1375.29,472.652L1375.32,472.451L1375.35,472.253L1375.38,472.058L1375.42,471.865L1375.45,471.674L1375.49,471.486L1375.52,471.3L1375.56,471.117L1375.59,470.936L1375.63,470.757L1375.66,470.582L1375.7,470.409L1375.74,470.238L1375.77,470.07L1375.81,469.904L1375.85,469.742L1375.88,469.581L1375.92,469.424L1375.96,469.269L1376,469.117L1376.04,468.967L1376.08,468.82L1376.12,468.676L1376.15,468.535L1376.19,468.396L1376.23,468.26L1376.27,468.127L1376.31,467.997L1376.35,467.87L1376.39,467.745L1376.43,467.623L1376.48,467.505L1376.52,467.389L1376.56,467.275L1376.6,467.165L1376.64,467.058L1376.68,466.954L1376.72,466.852L1376.77,466.754L1376.81,466.659L1376.85,466.566L1376.89,466.477L1376.93,466.391L1376.98,466.307L1377.02,466.227L1377.06,466.15L1377.11,466.076L1377.15,466.005L1377.19,465.937L1377.23,465.873L1377.28,465.811L1377.32,465.753L1377.36,465.698L1377.41,465.646L1377.45,465.598L1377.49,465.552L1377.54,465.51L1377.58,465.471L1377.62,465.436L1377.67,465.404L1377.71,465.375L1377.76,465.349L1377.8,465.327L1377.84,465.308L1377.89,465.293L1377.93,465.281L1377.98,465.272L1378.02,465.267L1378.06,465.265L1381.16,465.265L1381.21,465.272ZM1378.07,469.051L1378.04,469.052L1378.01,469.055L1377.98,469.061L1377.95,469.068L1377.93,469.078L1377.9,469.09L1377.87,469.103L1377.85,469.12L1377.82,469.138L1377.79,469.158L1377.76,469.181L1377.73,469.207L1377.7,469.234L1377.68,469.263L1377.65,469.296L1377.62,469.33L1377.59,469.367L1377.56,469.406L1377.53,469.448L1377.5,469.492L1377.47,469.538L1377.44,469.588L1377.41,469.639L1377.38,469.692L1377.35,469.748L1377.32,469.807L1377.29,469.87L1377.26,469.934L1377.23,470L1377.2,470.069L1377.17,470.142L1377.14,470.216L1377.11,470.292L1377.08,470.372L1377.05,470.455L1377.02,470.54L1376.99,470.626L1376.96,470.716L1376.92,470.809L1376.89,470.905L1376.86,471.002L1376.83,471.103L1376.8,471.206L1376.77,471.311L1376.74,471.42L1376.71,471.53L1376.68,471.644L1376.65,471.76L1376.62,471.879L1376.59,472L1376.56,472.124L1376.53,472.251L1376.5,472.378L1376.47,472.51L1376.44,472.644L1376.41,472.781L1376.38,472.92L1376.35,473.062L1376.32,473.205L1376.29,473.353L1376.26,473.501L1376.23,473.652L1376.2,473.806L1376.17,473.963L1376.14,474.121L1376.12,474.281L1376.09,474.445L1376.06,474.612L1376.03,474.78L1376.01,474.95L1375.98,475.123L1375.95,475.298L1375.92,475.476L1375.9,475.656L1375.87,475.838L1375.85,476.022L1375.82,476.208L1375.8,476.397L1375.77,476.589L1375.75,476.781L1375.72,476.976L1375.7,477.174L1375.67,477.375L1375.65,477.577L1375.63,477.779L1375.6,477.985L1375.58,478.193L1375.56,478.405L1375.54,478.617L1375.52,478.83L1375.49,479.048L1375.47,479.265L1375.45,479.485L1375.43,479.708L1375.41,479.932L1375.39,480.158L1375.38,480.386L1375.36,480.617L1375.34,480.848L1375.32,481.081L1375.31,481.317L1375.29,481.555L1375.27,481.795L1375.26,482.036L1375.24,482.278L1375.23,482.523L1375.21,482.769L1375.2,483.018L1375.18,483.268L1375.17,483.52L1375.16,483.774L1375.15,484.028L1375.13,484.285L1375.12,484.544L1375.11,484.804L1375.1,485.066L1375.09,485.329L1375.08,485.593L1375.08,485.861L1375.07,486.129L1375.06,486.398L1375.05,486.67L1375.05,486.943L1375.04,487.218L1375.03,487.493L1375.03,487.77L1375.03,488.049L1375.02,488.241L1375.02,491.714L1384.2,491.714L1384.2,488.221L1384.2,488.01L1384.19,487.731L1384.19,487.453L1384.19,487.177L1384.18,486.903L1384.17,486.631L1384.17,486.359L1384.16,486.089L1384.15,485.821L1384.15,485.556L1384.14,485.292L1384.13,485.028L1384.12,484.768L1384.11,484.509L1384.1,484.252L1384.09,483.996L1384.08,483.741L1384.07,483.49L1384.05,483.24L1384.04,482.992L1384.03,482.745L1384.01,482.499L1384,482.257L1383.98,482.016L1383.97,481.777L1383.95,481.54L1383.94,481.304L1383.92,481.07L1383.9,480.839L1383.89,480.609L1383.87,480.382L1383.85,480.156L1383.83,479.932L1383.82,479.711L1383.8,479.491L1383.78,479.273L1383.76,479.058L1383.74,478.844L1383.71,478.632L1383.69,478.423L1383.67,478.215L1383.65,478.009L1383.63,477.807L1383.61,477.606L1383.58,477.407L1383.56,477.21L1383.54,477.015L1383.51,476.822L1383.49,476.631L1383.46,476.444L1383.44,476.258L1383.42,476.075L1383.39,475.893L1383.37,475.713L1383.34,475.537L1383.31,475.361L1383.29,475.189L1383.26,475.02L1383.23,474.85L1383.21,474.684L1383.18,474.523L1383.15,474.361L1383.12,474.202L1383.1,474.045L1383.07,473.891L1383.04,473.74L1383.01,473.591L1382.98,473.444L1382.95,473.299L1382.92,473.158L1382.89,473.018L1382.87,472.879L1382.84,472.745L1382.81,472.613L1382.78,472.482L1382.75,472.354L1382.72,472.23L1382.69,472.107L1382.66,471.987L1382.62,471.869L1382.59,471.753L1382.56,471.64L1382.53,471.53L1382.5,471.422L1382.47,471.317L1382.44,471.214L1382.41,471.113L1382.38,471.016L1382.35,470.919L1382.32,470.825L1382.28,470.735L1382.25,470.646L1382.22,470.561L1382.19,470.478L1382.16,470.397L1382.13,470.318L1382.1,470.242L1382.06,470.168L1382.03,470.097L1382,470.03L1381.97,469.963L1381.94,469.898L1381.91,469.837L1381.88,469.778L1381.84,469.721L1381.81,469.667L1381.78,469.615L1381.75,469.565L1381.72,469.518L1381.69,469.473L1381.66,469.431L1381.63,469.39L1381.6,469.352L1381.56,469.316L1381.53,469.282L1381.5,469.251L1381.47,469.222L1381.44,469.196L1381.41,469.171L1381.38,469.149L1381.35,469.129L1381.32,469.11L1381.29,469.095L1381.26,469.082L1381.23,469.07L1381.2,469.061L1381.16,469.054L1381.14,469.051L1378.07,469.051Z" style="fill:white;"/>
                    </g>
                    <g id="tie">
                        <g transform="matrix(0.0430464,0,0,0.0430464,1346.69,1249.77)">
                            <path d="M2031,216.5C2031,258.198 2064.8,292 2106.5,292C2148.2,292 2182,258.197 2182,216.5L2106.5,216.5L2031,216.5Z" style="fill:white;"/>
                        </g>
                        <g transform="matrix(-6.1362e-17,0.365801,-0.0828424,-1.95783e-17,1507.08,374.719)">
                            <path d="M2475.35,774.007L2424.01,817.597L2424.01,865.546L2475.35,909.136L2489.17,841.511L2475.35,774.007Z" style="fill:white;"/>
                            <path d="M2475.35,774.007L2489.17,841.511L2475.35,909.136L2424.01,865.546L2424.01,817.597L2475.35,774.007ZM2471.29,855.666L2474.18,841.541L2471.3,827.472L2454.69,841.572L2471.29,855.666Z" style="fill:white;"/>
                        </g>
                    </g>
                </g>
            </g>
        </g>
    </g>
</svg>
