<?xml version="1.0" encoding="UTF-8" standalone="no"?>
<!DOCTYPE svg PUBLIC "-//W3C//DTD SVG 1.1//EN" "http://www.w3.org/Graphics/SVG/1.1/DTD/svg11.dtd">
<svg width="100%" height="100%" viewBox="0 0 64 64" version="1.1" xmlns="http://www.w3.org/2000/svg" xmlns:xlink="http://www.w3.org/1999/xlink" xml:space="preserve" xmlns:serif="http://www.serif.com/" style="fill-rule:evenodd;clip-rule:evenodd;stroke-linejoin:round;stroke-miterlimit:2;">
    <g transform="matrix(1,0,0,1,-1067,-2557)">
        <g transform="matrix(0.644329,0,0,0.644329,806.885,183.813)">
            <circle cx="453.363" cy="3732.85" r="49.664" style="fill:rgb(120,221,133);"/>
        </g>
        <g transform="matrix(1,0,0,1,822.412,1291.46)">
            <path d="M286.803,1304.92C286.803,1306.09 286.45,1307 285.744,1307.67C285.038,1308.35 284.099,1308.68 282.929,1308.68L270.248,1308.68C269.078,1308.68 268.139,1308.35 267.433,1307.67C266.727,1307 266.374,1306.09 266.374,1304.92C266.374,1304.41 266.391,1303.91 266.425,1303.42C266.459,1302.93 266.527,1302.41 266.628,1301.84C266.73,1301.28 266.858,1300.75 267.013,1300.27C267.167,1299.78 267.375,1299.31 267.636,1298.85C267.898,1298.39 268.197,1298 268.536,1297.68C268.875,1297.35 269.288,1297.1 269.777,1296.9C270.265,1296.71 270.804,1296.61 271.394,1296.61C271.481,1296.61 271.684,1296.71 272.004,1296.92C272.323,1297.13 272.683,1297.36 273.085,1297.62C273.486,1297.88 274.008,1298.11 274.652,1298.32C275.295,1298.52 275.94,1298.63 276.588,1298.63C277.237,1298.63 277.882,1298.52 278.525,1298.32C279.169,1298.11 279.691,1297.88 280.092,1297.62C280.494,1297.36 280.854,1297.13 281.173,1296.92C281.492,1296.71 281.696,1296.61 281.783,1296.61C282.373,1296.61 282.912,1296.71 283.4,1296.9C283.889,1297.1 284.302,1297.35 284.641,1297.68C284.979,1298 285.279,1298.39 285.54,1298.85C285.802,1299.31 286.01,1299.78 286.164,1300.27C286.319,1300.75 286.447,1301.28 286.549,1301.84C286.65,1302.41 286.718,1302.93 286.752,1303.42C286.786,1303.91 286.803,1304.41 286.803,1304.92ZM282.16,1291.97C282.16,1293.51 281.616,1294.82 280.528,1295.91C279.439,1297 278.126,1297.54 276.588,1297.54C275.051,1297.54 273.737,1297 272.649,1295.91C271.561,1294.82 271.017,1293.51 271.017,1291.97C271.017,1290.43 271.561,1289.12 272.649,1288.03C273.737,1286.94 275.051,1286.4 276.588,1286.4C278.126,1286.4 279.439,1286.94 280.528,1288.03C281.616,1289.12 282.16,1290.43 282.16,1291.97Z" style="fill:white;fill-rule:nonzero;"/>
        </g>
    </g>
</svg>
